<svg width="797" height="508" viewBox="0 0 797 508" fill="none" xmlns="http://www.w3.org/2000/svg">
<rect width="797" height="508" fill="black"/>
<rect x="76" y="129" width="317" height="379" fill="#C4C4C4" fill-opacity="0.31"/>
<rect x="234" y="269" width="317" height="239" fill="#C4C4C4" fill-opacity="0.31"/>
<path d="M202.848 373.672V387.72C202.848 390.054 202.115 391.899 200.65 393.257C199.195 394.614 197.203 395.293 194.674 395.293C192.184 395.293 190.206 394.634 188.741 393.315C187.276 391.997 186.529 390.186 186.5 387.881V373.672H190.895V387.749C190.895 389.146 191.227 390.166 191.891 390.811C192.564 391.445 193.492 391.763 194.674 391.763C197.145 391.763 198.399 390.464 198.438 387.866V373.672H202.848ZM210.069 379.15L210.201 380.981C211.334 379.565 212.853 378.857 214.757 378.857C216.437 378.857 217.687 379.351 218.507 380.337C219.327 381.323 219.747 382.798 219.767 384.761V395H215.533V384.863C215.533 383.965 215.338 383.315 214.947 382.915C214.557 382.505 213.907 382.3 212.999 382.3C211.808 382.3 210.914 382.808 210.318 383.823V395H206.085V379.15H210.069ZM222.33 386.958C222.33 384.487 222.882 382.52 223.985 381.055C225.099 379.59 226.617 378.857 228.541 378.857C230.084 378.857 231.358 379.434 232.364 380.586V372.5H236.612V395H232.789L232.584 393.315C231.529 394.634 230.172 395.293 228.512 395.293C226.646 395.293 225.147 394.561 224.015 393.096C222.892 391.621 222.33 389.575 222.33 386.958ZM226.563 387.266C226.563 388.75 226.822 389.888 227.34 390.679C227.857 391.47 228.609 391.865 229.596 391.865C230.904 391.865 231.827 391.313 232.364 390.21V383.955C231.837 382.852 230.924 382.3 229.625 382.3C227.584 382.3 226.563 383.955 226.563 387.266ZM247.188 395.293C244.864 395.293 242.97 394.58 241.505 393.154C240.05 391.729 239.322 389.829 239.322 387.456V387.046C239.322 385.454 239.63 384.033 240.245 382.783C240.86 381.523 241.729 380.557 242.853 379.883C243.985 379.199 245.274 378.857 246.72 378.857C248.888 378.857 250.592 379.541 251.832 380.908C253.082 382.275 253.707 384.214 253.707 386.724V388.452H243.614C243.751 389.487 244.161 390.317 244.845 390.942C245.538 391.567 246.412 391.88 247.467 391.88C249.098 391.88 250.372 391.289 251.29 390.107L253.37 392.437C252.735 393.335 251.876 394.038 250.792 394.546C249.708 395.044 248.507 395.293 247.188 395.293ZM246.705 382.285C245.865 382.285 245.182 382.568 244.654 383.135C244.137 383.701 243.805 384.512 243.658 385.566H249.547V385.229C249.527 384.292 249.273 383.569 248.785 383.062C248.297 382.544 247.604 382.285 246.705 382.285ZM265.03 383.12C264.454 383.042 263.946 383.003 263.507 383.003C261.905 383.003 260.855 383.545 260.357 384.629V395H256.124V379.15H260.123L260.24 381.04C261.09 379.585 262.267 378.857 263.771 378.857C264.239 378.857 264.679 378.921 265.089 379.048L265.03 383.12ZM281.144 391.88C281.925 391.88 282.56 391.665 283.048 391.235C283.536 390.806 283.79 390.234 283.81 389.521H287.779C287.77 390.596 287.477 391.582 286.9 392.48C286.324 393.369 285.533 394.062 284.527 394.561C283.531 395.049 282.428 395.293 281.217 395.293C278.951 395.293 277.164 394.575 275.855 393.14C274.547 391.694 273.893 389.702 273.893 387.163V386.885C273.893 384.443 274.542 382.495 275.841 381.04C277.14 379.585 278.922 378.857 281.188 378.857C283.17 378.857 284.757 379.424 285.948 380.557C287.149 381.68 287.76 383.179 287.779 385.054H283.81C283.79 384.233 283.536 383.569 283.048 383.062C282.56 382.544 281.915 382.285 281.114 382.285C280.128 382.285 279.381 382.646 278.873 383.369C278.375 384.082 278.126 385.244 278.126 386.855V387.295C278.126 388.926 278.375 390.098 278.873 390.811C279.371 391.523 280.128 391.88 281.144 391.88ZM289.537 386.929C289.537 385.356 289.84 383.955 290.445 382.725C291.051 381.494 291.92 380.542 293.053 379.868C294.195 379.194 295.519 378.857 297.022 378.857C299.161 378.857 300.904 379.512 302.252 380.82C303.609 382.129 304.366 383.906 304.522 386.152L304.552 387.236C304.552 389.668 303.873 391.621 302.516 393.096C301.158 394.561 299.337 395.293 297.052 395.293C294.767 395.293 292.94 394.561 291.573 393.096C290.216 391.631 289.537 389.639 289.537 387.119V386.929ZM293.771 387.236C293.771 388.74 294.054 389.893 294.62 390.693C295.187 391.484 295.997 391.88 297.052 391.88C298.077 391.88 298.878 391.489 299.454 390.708C300.03 389.917 300.318 388.657 300.318 386.929C300.318 385.454 300.03 384.312 299.454 383.501C298.878 382.69 298.067 382.285 297.022 382.285C295.987 382.285 295.187 382.69 294.62 383.501C294.054 384.302 293.771 385.547 293.771 387.236ZM311.056 379.15L311.188 380.981C312.32 379.565 313.839 378.857 315.743 378.857C317.423 378.857 318.673 379.351 319.493 380.337C320.313 381.323 320.733 382.798 320.753 384.761V395H316.52V384.863C316.52 383.965 316.324 383.315 315.934 382.915C315.543 382.505 314.894 382.3 313.985 382.3C312.794 382.3 311.9 382.808 311.305 383.823V395H307.071V379.15H311.056ZM332.56 390.62C332.56 390.103 332.301 389.697 331.783 389.404C331.275 389.102 330.455 388.833 329.322 388.599C325.553 387.808 323.668 386.206 323.668 383.794C323.668 382.388 324.249 381.216 325.411 380.278C326.583 379.331 328.111 378.857 329.996 378.857C332.008 378.857 333.614 379.331 334.815 380.278C336.026 381.226 336.632 382.456 336.632 383.97H332.398C332.398 383.364 332.203 382.866 331.812 382.476C331.422 382.075 330.812 381.875 329.981 381.875C329.269 381.875 328.717 382.036 328.326 382.358C327.936 382.681 327.74 383.091 327.74 383.589C327.74 384.058 327.96 384.438 328.399 384.731C328.849 385.015 329.601 385.264 330.655 385.479C331.71 385.684 332.599 385.918 333.321 386.182C335.558 387.002 336.676 388.423 336.676 390.444C336.676 391.89 336.056 393.062 334.815 393.96C333.575 394.849 331.974 395.293 330.011 395.293C328.683 395.293 327.501 395.059 326.466 394.59C325.44 394.111 324.635 393.462 324.049 392.642C323.463 391.812 323.17 390.918 323.17 389.961H327.184C327.223 390.713 327.501 391.289 328.019 391.689C328.536 392.09 329.229 392.29 330.099 392.29C330.909 392.29 331.52 392.139 331.93 391.836C332.35 391.523 332.56 391.118 332.56 390.62ZM344.483 375.254V379.15H347.193V382.256H344.483V390.166C344.483 390.752 344.596 391.172 344.82 391.426C345.045 391.68 345.475 391.807 346.109 391.807C346.578 391.807 346.993 391.772 347.354 391.704V394.912C346.524 395.166 345.67 395.293 344.791 395.293C341.822 395.293 340.309 393.794 340.25 390.796V382.256H337.936V379.15H340.25V375.254H344.483ZM358.458 383.12C357.882 383.042 357.374 383.003 356.935 383.003C355.333 383.003 354.283 383.545 353.785 384.629V395H349.552V379.15H353.551L353.668 381.04C354.518 379.585 355.694 378.857 357.198 378.857C357.667 378.857 358.106 378.921 358.517 379.048L358.458 383.12ZM370.001 393.389C368.956 394.658 367.511 395.293 365.665 395.293C363.966 395.293 362.667 394.805 361.769 393.828C360.88 392.852 360.426 391.421 360.406 389.536V379.15H364.64V389.39C364.64 391.04 365.392 391.865 366.896 391.865C368.331 391.865 369.317 391.367 369.854 390.371V379.15H374.103V395H370.118L370.001 393.389ZM383.888 391.88C384.669 391.88 385.304 391.665 385.792 391.235C386.28 390.806 386.534 390.234 386.554 389.521H390.523C390.514 390.596 390.221 391.582 389.645 392.48C389.068 393.369 388.277 394.062 387.271 394.561C386.275 395.049 385.172 395.293 383.961 395.293C381.695 395.293 379.908 394.575 378.6 393.14C377.291 391.694 376.637 389.702 376.637 387.163V386.885C376.637 384.443 377.286 382.495 378.585 381.04C379.884 379.585 381.666 378.857 383.932 378.857C385.914 378.857 387.501 379.424 388.692 380.557C389.894 381.68 390.504 383.179 390.523 385.054H386.554C386.534 384.233 386.28 383.569 385.792 383.062C385.304 382.544 384.659 382.285 383.858 382.285C382.872 382.285 382.125 382.646 381.617 383.369C381.119 384.082 380.87 385.244 380.87 386.855V387.295C380.87 388.926 381.119 390.098 381.617 390.811C382.115 391.523 382.872 391.88 383.888 391.88ZM398.009 375.254V379.15H400.719V382.256H398.009V390.166C398.009 390.752 398.121 391.172 398.346 391.426C398.57 391.68 399 391.807 399.635 391.807C400.104 391.807 400.519 391.772 400.88 391.704V394.912C400.05 395.166 399.195 395.293 398.316 395.293C395.348 395.293 393.834 393.794 393.775 390.796V382.256H391.461V379.15H393.775V375.254H398.009ZM407.545 395H403.297V379.15H407.545V395ZM403.048 375.049C403.048 374.414 403.258 373.892 403.678 373.481C404.107 373.071 404.688 372.866 405.421 372.866C406.144 372.866 406.72 373.071 407.149 373.481C407.579 373.892 407.794 374.414 407.794 375.049C407.794 375.693 407.574 376.221 407.135 376.631C406.705 377.041 406.134 377.246 405.421 377.246C404.708 377.246 404.132 377.041 403.692 376.631C403.263 376.221 403.048 375.693 403.048 375.049ZM410.387 386.929C410.387 385.356 410.689 383.955 411.295 382.725C411.9 381.494 412.77 380.542 413.902 379.868C415.045 379.194 416.368 378.857 417.872 378.857C420.011 378.857 421.754 379.512 423.102 380.82C424.459 382.129 425.216 383.906 425.372 386.152L425.401 387.236C425.401 389.668 424.723 391.621 423.365 393.096C422.008 394.561 420.187 395.293 417.901 395.293C415.616 395.293 413.79 394.561 412.423 393.096C411.065 391.631 410.387 389.639 410.387 387.119V386.929ZM414.62 387.236C414.62 388.74 414.903 389.893 415.47 390.693C416.036 391.484 416.847 391.88 417.901 391.88C418.927 391.88 419.728 391.489 420.304 390.708C420.88 389.917 421.168 388.657 421.168 386.929C421.168 385.454 420.88 384.312 420.304 383.501C419.728 382.69 418.917 382.285 417.872 382.285C416.837 382.285 416.036 382.69 415.47 383.501C414.903 384.302 414.62 385.547 414.62 387.236ZM431.905 379.15L432.037 380.981C433.17 379.565 434.688 378.857 436.593 378.857C438.272 378.857 439.522 379.351 440.343 380.337C441.163 381.323 441.583 382.798 441.603 384.761V395H437.369V384.863C437.369 383.965 437.174 383.315 436.783 382.915C436.393 382.505 435.743 382.3 434.835 382.3C433.644 382.3 432.75 382.808 432.154 383.823V395H427.921V379.15H431.905Z" fill="black"/>
</svg>
