<svg width="797" height="508" viewBox="0 0 797 508" fill="none" xmlns="http://www.w3.org/2000/svg">
<rect width="797" height="508" fill="black"/>
<rect x="76" y="129" width="317" height="379" fill="#C4C4C4" fill-opacity="0.31"/>
<rect x="234" y="269" width="317" height="239" fill="#C4C4C4" fill-opacity="0.31"/>
<path d="M149.176 388.848L152.047 373.672H156.427L151.695 395H147.271L143.8 380.732L140.328 395H135.904L131.173 373.672H135.553L138.438 388.818L141.954 373.672H145.675L149.176 388.848ZM163.004 395H158.756V379.15H163.004V395ZM158.507 375.049C158.507 374.414 158.717 373.892 159.137 373.481C159.566 373.071 160.147 372.866 160.88 372.866C161.603 372.866 162.179 373.071 162.608 373.481C163.038 373.892 163.253 374.414 163.253 375.049C163.253 375.693 163.033 376.221 162.594 376.631C162.164 377.041 161.593 377.246 160.88 377.246C160.167 377.246 159.591 377.041 159.151 376.631C158.722 376.221 158.507 375.693 158.507 375.049ZM170.973 395H166.725V372.5H170.973V395ZM178.941 395H174.693V372.5H178.941V395ZM199.098 395C198.902 394.619 198.761 394.146 198.673 393.579C197.647 394.722 196.314 395.293 194.674 395.293C193.121 395.293 191.832 394.844 190.807 393.945C189.791 393.047 189.283 391.914 189.283 390.547C189.283 388.867 189.903 387.578 191.144 386.68C192.394 385.781 194.195 385.327 196.549 385.317H198.497V384.409C198.497 383.677 198.307 383.091 197.926 382.651C197.555 382.212 196.964 381.992 196.153 381.992C195.44 381.992 194.879 382.163 194.469 382.505C194.068 382.847 193.868 383.315 193.868 383.911H189.635C189.635 382.993 189.918 382.144 190.484 381.362C191.051 380.581 191.852 379.971 192.887 379.531C193.922 379.082 195.084 378.857 196.373 378.857C198.326 378.857 199.874 379.351 201.017 380.337C202.169 381.313 202.745 382.69 202.745 384.468V391.338C202.755 392.842 202.965 393.979 203.375 394.751V395H199.098ZM195.597 392.056C196.222 392.056 196.798 391.919 197.325 391.646C197.853 391.362 198.243 390.986 198.497 390.518V387.793H196.915C194.796 387.793 193.668 388.525 193.531 389.99L193.517 390.239C193.517 390.767 193.702 391.201 194.073 391.543C194.444 391.885 194.952 392.056 195.597 392.056ZM211.065 375.254V379.15H213.775V382.256H211.065V390.166C211.065 390.752 211.178 391.172 211.402 391.426C211.627 391.68 212.057 391.807 212.691 391.807C213.16 391.807 213.575 391.772 213.937 391.704V394.912C213.106 395.166 212.252 395.293 211.373 395.293C208.404 395.293 206.891 393.794 206.832 390.796V382.256H204.518V379.15H206.832V375.254H211.065ZM221.202 375.254V379.15H223.912V382.256H221.202V390.166C221.202 390.752 221.314 391.172 221.539 391.426C221.764 391.68 222.193 391.807 222.828 391.807C223.297 391.807 223.712 391.772 224.073 391.704V394.912C223.243 395.166 222.389 395.293 221.51 395.293C218.541 395.293 217.027 393.794 216.969 390.796V382.256H214.654V379.15H216.969V375.254H221.202ZM233.565 395.293C231.241 395.293 229.347 394.58 227.882 393.154C226.427 391.729 225.699 389.829 225.699 387.456V387.046C225.699 385.454 226.007 384.033 226.622 382.783C227.237 381.523 228.106 380.557 229.229 379.883C230.362 379.199 231.651 378.857 233.097 378.857C235.265 378.857 236.969 379.541 238.209 380.908C239.459 382.275 240.084 384.214 240.084 386.724V388.452H229.991C230.128 389.487 230.538 390.317 231.222 390.942C231.915 391.567 232.789 391.88 233.844 391.88C235.475 391.88 236.749 391.289 237.667 390.107L239.747 392.437C239.112 393.335 238.253 394.038 237.169 394.546C236.085 395.044 234.884 395.293 233.565 395.293ZM233.082 382.285C232.242 382.285 231.559 382.568 231.031 383.135C230.514 383.701 230.182 384.512 230.035 385.566H235.924V385.229C235.904 384.292 235.65 383.569 235.162 383.062C234.674 382.544 233.98 382.285 233.082 382.285ZM246.397 379.15L246.529 380.981C247.662 379.565 249.181 378.857 251.085 378.857C252.765 378.857 254.015 379.351 254.835 380.337C255.655 381.323 256.075 382.798 256.095 384.761V395H251.861V384.863C251.861 383.965 251.666 383.315 251.275 382.915C250.885 382.505 250.235 382.3 249.327 382.3C248.136 382.3 247.242 382.808 246.646 383.823V395H242.413V379.15H246.397ZM258.658 386.958C258.658 384.487 259.21 382.52 260.313 381.055C261.427 379.59 262.945 378.857 264.869 378.857C266.412 378.857 267.687 379.434 268.692 380.586V372.5H272.94V395H269.117L268.912 393.315C267.857 394.634 266.5 395.293 264.84 395.293C262.975 395.293 261.476 394.561 260.343 393.096C259.22 391.621 258.658 389.575 258.658 386.958ZM262.892 387.266C262.892 388.75 263.15 389.888 263.668 390.679C264.186 391.47 264.938 391.865 265.924 391.865C267.232 391.865 268.155 391.313 268.692 390.21V383.955C268.165 382.852 267.252 382.3 265.953 382.3C263.912 382.3 262.892 383.955 262.892 387.266ZM288.761 375.254V379.15H291.471V382.256H288.761V390.166C288.761 390.752 288.873 391.172 289.098 391.426C289.322 391.68 289.752 391.807 290.387 391.807C290.855 391.807 291.271 391.772 291.632 391.704V394.912C290.802 395.166 289.947 395.293 289.068 395.293C286.1 395.293 284.586 393.794 284.527 390.796V382.256H282.213V379.15H284.527V375.254H288.761ZM292.73 386.929C292.73 385.356 293.033 383.955 293.639 382.725C294.244 381.494 295.113 380.542 296.246 379.868C297.389 379.194 298.712 378.857 300.216 378.857C302.354 378.857 304.098 379.512 305.445 380.82C306.803 382.129 307.56 383.906 307.716 386.152L307.745 387.236C307.745 389.668 307.066 391.621 305.709 393.096C304.352 394.561 302.53 395.293 300.245 395.293C297.96 395.293 296.134 394.561 294.767 393.096C293.409 391.631 292.73 389.639 292.73 387.119V386.929ZM296.964 387.236C296.964 388.74 297.247 389.893 297.813 390.693C298.38 391.484 299.19 391.88 300.245 391.88C301.271 391.88 302.071 391.489 302.647 390.708C303.224 389.917 303.512 388.657 303.512 386.929C303.512 385.454 303.224 384.312 302.647 383.501C302.071 382.69 301.261 382.285 300.216 382.285C299.181 382.285 298.38 382.69 297.813 383.501C297.247 384.302 296.964 385.547 296.964 387.236ZM322.892 375.254V379.15H325.602V382.256H322.892V390.166C322.892 390.752 323.004 391.172 323.229 391.426C323.453 391.68 323.883 391.807 324.518 391.807C324.986 391.807 325.401 391.772 325.763 391.704V394.912C324.933 395.166 324.078 395.293 323.199 395.293C320.23 395.293 318.717 393.794 318.658 390.796V382.256H316.344V379.15H318.658V375.254H322.892ZM332.091 380.879C333.214 379.531 334.625 378.857 336.324 378.857C339.762 378.857 341.505 380.854 341.554 384.849V395H337.32V384.966C337.32 384.058 337.125 383.389 336.734 382.959C336.344 382.52 335.694 382.3 334.786 382.3C333.546 382.3 332.647 382.778 332.091 383.735V395H327.857V372.5H332.091V380.879ZM352.042 395.293C349.718 395.293 347.823 394.58 346.358 393.154C344.903 391.729 344.176 389.829 344.176 387.456V387.046C344.176 385.454 344.483 384.033 345.099 382.783C345.714 381.523 346.583 380.557 347.706 379.883C348.839 379.199 350.128 378.857 351.573 378.857C353.741 378.857 355.445 379.541 356.686 380.908C357.936 382.275 358.561 384.214 358.561 386.724V388.452H348.468C348.604 389.487 349.015 390.317 349.698 390.942C350.392 391.567 351.266 391.88 352.32 391.88C353.951 391.88 355.226 391.289 356.144 390.107L358.224 392.437C357.589 393.335 356.729 394.038 355.646 394.546C354.562 395.044 353.36 395.293 352.042 395.293ZM351.559 382.285C350.719 382.285 350.035 382.568 349.508 383.135C348.99 383.701 348.658 384.512 348.512 385.566H354.4V385.229C354.381 384.292 354.127 383.569 353.639 383.062C353.15 382.544 352.457 382.285 351.559 382.285ZM369.562 390.62C369.562 390.103 369.303 389.697 368.785 389.404C368.277 389.102 367.457 388.833 366.324 388.599C362.555 387.808 360.67 386.206 360.67 383.794C360.67 382.388 361.251 381.216 362.413 380.278C363.585 379.331 365.113 378.857 366.998 378.857C369.01 378.857 370.616 379.331 371.817 380.278C373.028 381.226 373.634 382.456 373.634 383.97H369.4C369.4 383.364 369.205 382.866 368.814 382.476C368.424 382.075 367.813 381.875 366.983 381.875C366.271 381.875 365.719 382.036 365.328 382.358C364.938 382.681 364.742 383.091 364.742 383.589C364.742 384.058 364.962 384.438 365.401 384.731C365.851 385.015 366.603 385.264 367.657 385.479C368.712 385.684 369.601 385.918 370.323 386.182C372.56 387.002 373.678 388.423 373.678 390.444C373.678 391.89 373.058 393.062 371.817 393.96C370.577 394.849 368.976 395.293 367.013 395.293C365.685 395.293 364.503 395.059 363.468 394.59C362.442 394.111 361.637 393.462 361.051 392.642C360.465 391.812 360.172 390.918 360.172 389.961H364.186C364.225 390.713 364.503 391.289 365.021 391.689C365.538 392.09 366.231 392.29 367.101 392.29C367.911 392.29 368.521 392.139 368.932 391.836C369.352 391.523 369.562 391.118 369.562 390.62ZM383.712 395.293C381.388 395.293 379.493 394.58 378.028 393.154C376.573 391.729 375.846 389.829 375.846 387.456V387.046C375.846 385.454 376.153 384.033 376.769 382.783C377.384 381.523 378.253 380.557 379.376 379.883C380.509 379.199 381.798 378.857 383.243 378.857C385.411 378.857 387.115 379.541 388.355 380.908C389.605 382.275 390.23 384.214 390.23 386.724V388.452H380.138C380.274 389.487 380.685 390.317 381.368 390.942C382.062 391.567 382.936 391.88 383.99 391.88C385.621 391.88 386.896 391.289 387.813 390.107L389.894 392.437C389.259 393.335 388.399 394.038 387.315 394.546C386.231 395.044 385.03 395.293 383.712 395.293ZM383.229 382.285C382.389 382.285 381.705 382.568 381.178 383.135C380.66 383.701 380.328 384.512 380.182 385.566H386.07V385.229C386.051 384.292 385.797 383.569 385.309 383.062C384.82 382.544 384.127 382.285 383.229 382.285ZM404.586 395H400.338V379.15H404.586V395ZM400.089 375.049C400.089 374.414 400.299 373.892 400.719 373.481C401.148 373.071 401.729 372.866 402.462 372.866C403.185 372.866 403.761 373.071 404.19 373.481C404.62 373.892 404.835 374.414 404.835 375.049C404.835 375.693 404.615 376.221 404.176 376.631C403.746 377.041 403.175 377.246 402.462 377.246C401.749 377.246 401.173 377.041 400.733 376.631C400.304 376.221 400.089 375.693 400.089 375.049ZM412.057 379.15L412.188 380.923C413.312 379.546 414.83 378.857 416.744 378.857C418.785 378.857 420.187 379.663 420.948 381.274C422.062 379.663 423.648 378.857 425.709 378.857C427.428 378.857 428.707 379.36 429.547 380.366C430.387 381.362 430.807 382.866 430.807 384.878V395H426.559V384.893C426.559 383.994 426.383 383.34 426.031 382.93C425.68 382.51 425.06 382.3 424.171 382.3C422.901 382.3 422.022 382.905 421.534 384.116L421.549 395H417.315V384.907C417.315 383.989 417.135 383.325 416.773 382.915C416.412 382.505 415.797 382.3 414.928 382.3C413.727 382.3 412.857 382.798 412.32 383.794V395H408.087V379.15H412.057ZM443.258 395C443.062 394.619 442.921 394.146 442.833 393.579C441.808 394.722 440.475 395.293 438.834 395.293C437.281 395.293 435.992 394.844 434.967 393.945C433.951 393.047 433.443 391.914 433.443 390.547C433.443 388.867 434.063 387.578 435.304 386.68C436.554 385.781 438.355 385.327 440.709 385.317H442.657V384.409C442.657 383.677 442.467 383.091 442.086 382.651C441.715 382.212 441.124 381.992 440.313 381.992C439.601 381.992 439.039 382.163 438.629 382.505C438.229 382.847 438.028 383.315 438.028 383.911H433.795C433.795 382.993 434.078 382.144 434.645 381.362C435.211 380.581 436.012 379.971 437.047 379.531C438.082 379.082 439.244 378.857 440.533 378.857C442.486 378.857 444.034 379.351 445.177 380.337C446.329 381.313 446.905 382.69 446.905 384.468V391.338C446.915 392.842 447.125 393.979 447.535 394.751V395H443.258ZM439.757 392.056C440.382 392.056 440.958 391.919 441.485 391.646C442.013 391.362 442.403 390.986 442.657 390.518V387.793H441.075C438.956 387.793 437.828 388.525 437.691 389.99L437.677 390.239C437.677 390.767 437.862 391.201 438.233 391.543C438.604 391.885 439.112 392.056 439.757 392.056ZM449.542 386.958C449.542 384.526 450.118 382.568 451.271 381.084C452.433 379.6 453.995 378.857 455.958 378.857C457.696 378.857 459.049 379.453 460.016 380.645L460.191 379.15H464.029V394.473C464.029 395.859 463.712 397.065 463.077 398.091C462.452 399.116 461.568 399.897 460.426 400.435C459.283 400.972 457.945 401.24 456.412 401.24C455.25 401.24 454.117 401.006 453.014 400.537C451.91 400.078 451.075 399.482 450.509 398.75L452.384 396.172C453.438 397.354 454.718 397.944 456.222 397.944C457.345 397.944 458.219 397.642 458.844 397.036C459.469 396.44 459.781 395.591 459.781 394.487V393.638C458.805 394.741 457.521 395.293 455.929 395.293C454.024 395.293 452.481 394.551 451.3 393.066C450.128 391.572 449.542 389.595 449.542 387.134V386.958ZM453.775 387.266C453.775 388.701 454.063 389.829 454.64 390.649C455.216 391.46 456.007 391.865 457.013 391.865C458.302 391.865 459.225 391.382 459.781 390.415V383.75C459.215 382.783 458.302 382.3 457.042 382.3C456.026 382.3 455.226 382.715 454.64 383.545C454.063 384.375 453.775 385.615 453.775 387.266ZM474.591 395.293C472.267 395.293 470.372 394.58 468.907 393.154C467.452 391.729 466.725 389.829 466.725 387.456V387.046C466.725 385.454 467.032 384.033 467.647 382.783C468.263 381.523 469.132 380.557 470.255 379.883C471.388 379.199 472.677 378.857 474.122 378.857C476.29 378.857 477.994 379.541 479.234 380.908C480.484 382.275 481.109 384.214 481.109 386.724V388.452H471.017C471.153 389.487 471.563 390.317 472.247 390.942C472.94 391.567 473.814 391.88 474.869 391.88C476.5 391.88 477.774 391.289 478.692 390.107L480.772 392.437C480.138 393.335 479.278 394.038 478.194 394.546C477.11 395.044 475.909 395.293 474.591 395.293ZM474.107 382.285C473.268 382.285 472.584 382.568 472.057 383.135C471.539 383.701 471.207 384.512 471.061 385.566H476.949V385.229C476.93 384.292 476.676 383.569 476.188 383.062C475.699 382.544 475.006 382.285 474.107 382.285ZM492.11 390.62C492.11 390.103 491.852 389.697 491.334 389.404C490.826 389.102 490.006 388.833 488.873 388.599C485.104 387.808 483.219 386.206 483.219 383.794C483.219 382.388 483.8 381.216 484.962 380.278C486.134 379.331 487.662 378.857 489.547 378.857C491.559 378.857 493.165 379.331 494.366 380.278C495.577 381.226 496.183 382.456 496.183 383.97H491.949C491.949 383.364 491.754 382.866 491.363 382.476C490.973 382.075 490.362 381.875 489.532 381.875C488.819 381.875 488.268 382.036 487.877 382.358C487.486 382.681 487.291 383.091 487.291 383.589C487.291 384.058 487.511 384.438 487.95 384.731C488.399 385.015 489.151 385.264 490.206 385.479C491.261 385.684 492.149 385.918 492.872 386.182C495.108 387.002 496.227 388.423 496.227 390.444C496.227 391.89 495.606 393.062 494.366 393.96C493.126 394.849 491.524 395.293 489.562 395.293C488.233 395.293 487.052 395.059 486.017 394.59C484.991 394.111 484.186 393.462 483.6 392.642C483.014 391.812 482.721 390.918 482.721 389.961H486.734C486.773 390.713 487.052 391.289 487.569 391.689C488.087 392.09 488.78 392.29 489.649 392.29C490.46 392.29 491.07 392.139 491.48 391.836C491.9 391.523 492.11 391.118 492.11 390.62ZM286.754 425.62C286.754 425.103 286.495 424.697 285.978 424.404C285.47 424.102 284.649 423.833 283.517 423.599C279.747 422.808 277.862 421.206 277.862 418.794C277.862 417.388 278.443 416.216 279.605 415.278C280.777 414.331 282.306 413.857 284.19 413.857C286.202 413.857 287.809 414.331 289.01 415.278C290.221 416.226 290.826 417.456 290.826 418.97H286.593C286.593 418.364 286.397 417.866 286.007 417.476C285.616 417.075 285.006 416.875 284.176 416.875C283.463 416.875 282.911 417.036 282.521 417.358C282.13 417.681 281.935 418.091 281.935 418.589C281.935 419.058 282.154 419.438 282.594 419.731C283.043 420.015 283.795 420.264 284.85 420.479C285.904 420.684 286.793 420.918 287.516 421.182C289.752 422.002 290.87 423.423 290.87 425.444C290.87 426.89 290.25 428.062 289.01 428.96C287.77 429.849 286.168 430.293 284.205 430.293C282.877 430.293 281.695 430.059 280.66 429.59C279.635 429.111 278.829 428.462 278.243 427.642C277.657 426.812 277.364 425.918 277.364 424.961H281.378C281.417 425.713 281.695 426.289 282.213 426.689C282.73 427.09 283.424 427.29 284.293 427.29C285.104 427.29 285.714 427.139 286.124 426.836C286.544 426.523 286.754 426.118 286.754 425.62ZM292.95 421.929C292.95 420.356 293.253 418.955 293.858 417.725C294.464 416.494 295.333 415.542 296.466 414.868C297.608 414.194 298.932 413.857 300.436 413.857C302.574 413.857 304.317 414.512 305.665 415.82C307.022 417.129 307.779 418.906 307.936 421.152L307.965 422.236C307.965 424.668 307.286 426.621 305.929 428.096C304.571 429.561 302.75 430.293 300.465 430.293C298.18 430.293 296.354 429.561 294.986 428.096C293.629 426.631 292.95 424.639 292.95 422.119V421.929ZM297.184 422.236C297.184 423.74 297.467 424.893 298.033 425.693C298.6 426.484 299.41 426.88 300.465 426.88C301.49 426.88 302.291 426.489 302.867 425.708C303.443 424.917 303.731 423.657 303.731 421.929C303.731 420.454 303.443 419.312 302.867 418.501C302.291 417.69 301.48 417.285 300.436 417.285C299.4 417.285 298.6 417.69 298.033 418.501C297.467 419.302 297.184 420.547 297.184 422.236ZM309.913 421.929C309.913 420.356 310.216 418.955 310.821 417.725C311.427 416.494 312.296 415.542 313.429 414.868C314.571 414.194 315.895 413.857 317.398 413.857C319.537 413.857 321.28 414.512 322.628 415.82C323.985 417.129 324.742 418.906 324.898 421.152L324.928 422.236C324.928 424.668 324.249 426.621 322.892 428.096C321.534 429.561 319.713 430.293 317.428 430.293C315.143 430.293 313.316 429.561 311.949 428.096C310.592 426.631 309.913 424.639 309.913 422.119V421.929ZM314.146 422.236C314.146 423.74 314.43 424.893 314.996 425.693C315.562 426.484 316.373 426.88 317.428 426.88C318.453 426.88 319.254 426.489 319.83 425.708C320.406 424.917 320.694 423.657 320.694 421.929C320.694 420.454 320.406 419.312 319.83 418.501C319.254 417.69 318.443 417.285 317.398 417.285C316.363 417.285 315.562 417.69 314.996 418.501C314.43 419.302 314.146 420.547 314.146 422.236ZM331.432 414.15L331.563 415.981C332.696 414.565 334.215 413.857 336.119 413.857C337.799 413.857 339.049 414.351 339.869 415.337C340.689 416.323 341.109 417.798 341.129 419.761V430H336.896V419.863C336.896 418.965 336.7 418.315 336.31 417.915C335.919 417.505 335.27 417.3 334.361 417.3C333.17 417.3 332.276 417.808 331.681 418.823V430H327.447V414.15H331.432ZM344.571 427.92C344.571 427.246 344.796 426.699 345.245 426.279C345.704 425.859 346.275 425.649 346.959 425.649C347.652 425.649 348.224 425.859 348.673 426.279C349.132 426.699 349.361 427.246 349.361 427.92C349.361 428.584 349.137 429.126 348.688 429.546C348.238 429.956 347.662 430.161 346.959 430.161C346.266 430.161 345.694 429.956 345.245 429.546C344.796 429.126 344.571 428.584 344.571 427.92Z" fill="black"/>
</svg>
